<svg width="35" height="22" viewBox="0 0 35 22" fill="none" xmlns="http://www.w3.org/2000/svg">
<path d="M30.5539 13.4374C26.2146 20.7899 18.3249 19.973 17.1415 19.973C15.5635 19.973 4.89676 19.5157 2.15112 10.9865C0.573205 6.08477 11.7502 13.4374 17.1415 19.973C23.3217 12.8927 36.3361 3.64002 30.5539 13.4374Z" fill="white"/>
<path d="M17.1415 2V19.973M17.1415 19.973C18.3249 19.973 26.2146 20.7899 30.5539 13.4374C36.3361 3.64002 23.3217 12.8927 17.1415 19.973ZM17.1415 19.973C15.5635 19.973 4.89676 19.5157 2.15112 10.9865C0.573205 6.08477 11.7502 13.4374 17.1415 19.973Z" stroke="white" stroke-width="3"/>
<rect x="15.64" width="3" height="9" rx="1.5" fill="white"/>
<path d="M18.1415 2V19.973M18.1415 19.973C19.3249 19.973 27.2146 20.7899 31.5539 13.4374C37.3361 3.64002 24.3217 12.8927 18.1415 19.973ZM18.1415 19.973C16.5635 19.973 5.89676 19.5157 3.15112 10.9865C1.5732 6.08477 12.7502 13.4374 18.1415 19.973Z" stroke="#453428" stroke-width="3"/>
<rect x="16.64" width="3" height="9" rx="1.5" fill="#453428"/>
</svg>
