<svg width="25" height="17" viewBox="0 0 25 17" fill="none" xmlns="http://www.w3.org/2000/svg">
<path d="M22.6898 9.85419C19.5076 15.2461 13.7219 14.647 12.854 14.647C11.6968 14.647 3.87453 14.3117 1.86106 8.05689C0.703928 4.4623 8.90039 9.85419 12.854 14.647C17.3862 9.45479 26.93 2.66948 22.6898 9.85419Z" fill="#F9A902"/>
<path d="M12.854 1.4668V14.647M12.854 14.647C13.7219 14.647 19.5076 15.2461 22.6898 9.85419C26.93 2.66948 17.3862 9.45479 12.854 14.647ZM12.854 14.647C11.6968 14.647 3.87453 14.3117 1.86106 8.05689C0.703928 4.4623 8.90039 9.85419 12.854 14.647Z" stroke="#F9A902" stroke-width="2"/>
<rect x="11.8503" width="2" height="6.6" rx="1" fill="#F9A902"/>
<path d="M12.6062 1.50015V14.98M12.6062 14.98C13.4938 14.98 19.4112 15.5928 22.6657 10.0783C27.0023 2.73018 17.2415 9.66978 12.6062 14.98ZM12.6062 14.98C11.4228 14.98 3.42259 14.6371 1.36334 8.2401C0.179892 4.56376 8.56273 10.0783 12.6062 14.98Z" stroke="#453428" stroke-width="2"/>
<rect x="11.6102" width="2" height="7" rx="1" fill="#453428"/>
</svg>
